0
SECTION
2
HEADER
9
$INSUNITS
70
4
0
ENDSEC
0
SECTION
2
TABLES
0
TABLE
2
LTYPE
0
LTYPE
72
65
70
64
2
CONTINUOUS
3
______
73
0
40
0
0
ENDTAB
0
TABLE
2
LAYER
0
ENDTAB
0
ENDSEC
0
SECTION
2
ENTITIES
0
LINE
8
0
10
-9
20
19.55
11
9
21
19.55
0
LINE
8
0
10
9
20
19.55
11
9
21
2.55
0
LINE
8
0
10
9
20
2.55
11
-9
21
2.55
0
LINE
8
0
10
-9
20
2.55
11
-9
21
19.55
0
LINE
8
0
10
-9
20
36.55
11
9
21
36.55
0
LINE
8
0
10
9
20
36.55
11
9
21
19.55
0
LINE
8
0
10
9
20
19.55
11
-9
21
19.55
0
LINE
8
0
10
-9
20
19.55
11
-9
21
36.55
0
LINE
8
0
10
-9
20
53.55
11
9
21
53.55
0
LINE
8
0
10
9
20
53.55
11
9
21
36.55
0
LINE
8
0
10
9
20
36.55
11
-9
21
36.55
0
LINE
8
0
10
-9
20
36.55
11
-9
21
53.55
0
LINE
8
0
10
11.1977949
20
31.4941923
11
29.099189
21
29.6126799
0
LINE
8
0
10
29.099189
20
29.6126799
11
27.3222051
21
12.7058077
0
LINE
8
0
10
27.3222051
20
12.7058077
11
9.420811
21
14.5873201
0
LINE
8
0
10
9.420811
20
14.5873201
11
11.1977949
21
31.4941923
0
LINE
8
0
10
12.9747788
20
48.4010645
11
30.8761729
21
46.5195521
0
LINE
8
0
10
30.8761729
20
46.5195521
11
29.099189
21
29.6126799
0
LINE
8
0
10
29.099189
20
29.6126799
11
11.1977949
21
31.4941923
0
LINE
8
0
10
11.1977949
20
31.4941923
11
12.9747788
21
48.4010645
0
LINE
8
0
10
14.7517627
20
65.3079367
11
32.6531568
21
63.4264243
0
LINE
8
0
10
32.6531568
20
63.4264243
11
30.8761729
21
46.5195521
0
LINE
8
0
10
30.8761729
20
46.5195521
11
12.9747788
21
48.4010645
0
LINE
8
0
10
12.9747788
20
48.4010645
11
14.7517627
21
65.3079367
0
LINE
8
0
10
31.9157233
20
38.4739174
11
49.6422629
21
35.3482502
0
LINE
8
0
10
49.6422629
20
35.3482502
11
46.6902439
21
18.6065184
0
LINE
8
0
10
46.6902439
20
18.6065184
11
28.9637043
21
21.7321856
0
LINE
8
0
10
28.9637043
20
21.7321856
11
31.9157233
21
38.4739174
0
LINE
8
0
10
34.8677423
20
55.2156492
11
52.5942819
21
52.089982
0
LINE
8
0
10
52.5942819
20
52.089982
11
49.6422629
21
35.3482502
0
LINE
8
0
10
49.6422629
20
35.3482502
11
31.9157233
21
38.4739174
0
LINE
8
0
10
31.9157233
20
38.4739174
11
34.8677423
21
55.2156492
0
LINE
8
0
10
37.8197613
20
71.957381
11
55.5463009
21
68.8317138
0
LINE
8
0
10
55.5463009
20
68.8317138
11
52.5942819
21
52.089982
0
LINE
8
0
10
52.5942819
20
52.089982
11
34.8677423
21
55.2156492
0
LINE
8
0
10
34.8677423
20
55.2156492
11
37.8197613
21
71.957381
0
LINE
8
0
10
48.1662534
20
26.9773843
11
65.892793
21
23.8517171
0
LINE
8
0
10
65.892793
20
23.8517171
11
62.940774
21
7.1099853
0
LINE
8
0
10
62.940774
20
7.1099853
11
45.2142344
21
10.2356525
0
LINE
8
0
10
45.2142344
20
10.2356525
11
48.1662534
21
26.9773843
0
LINE
8
0
10
51.1182724
20
43.7191161
11
68.844812
21
40.5934489
0
LINE
8
0
10
68.844812
20
40.5934489
11
65.892793
21
23.8517171
0
LINE
8
0
10
65.892793
20
23.8517171
11
48.1662534
21
26.9773843
0
LINE
8
0
10
48.1662534
20
26.9773843
11
51.1182724
21
43.7191161
0
LINE
8
0
10
54.0702914
20
60.4608479
11
71.796831
21
57.3351807
0
LINE
8
0
10
71.796831
20
57.3351807
11
68.844812
21
40.5934489
0
LINE
8
0
10
68.844812
20
40.5934489
11
51.1182724
21
43.7191161
0
LINE
8
0
10
51.1182724
20
43.7191161
11
54.0702914
21
60.4608479
0
LINE
8
0
10
65.4499901
20
21.3404573
11
83.1765297
21
18.2147901
0
LINE
8
0
10
83.1765297
20
18.2147901
11
80.2245107
21
1.4730583
0
LINE
8
0
10
80.2245107
20
1.4730583
11
62.4979711
21
4.5987255
0
LINE
8
0
10
62.4979711
20
4.5987255
11
65.4499901
21
21.3404573
0
LINE
8
0
10
68.4020091
20
38.0821891
11
86.1285487
21
34.9565219
0
LINE
8
0
10
86.1285487
20
34.9565219
11
83.1765297
21
18.2147901
0
LINE
8
0
10
83.1765297
20
18.2147901
11
65.4499901
21
21.3404573
0
LINE
8
0
10
65.4499901
20
21.3404573
11
68.4020091
21
38.0821891
0
LINE
8
0
10
71.3540281
20
54.8239209
11
89.0805677
21
51.6982537
0
LINE
8
0
10
89.0805677
20
51.6982537
11
86.1285487
21
34.9565219
0
LINE
8
0
10
86.1285487
20
34.9565219
11
68.4020091
21
38.0821891
0
LINE
8
0
10
68.4020091
20
38.0821891
11
71.3540281
21
54.8239209
0
LINE
8
0
10
47.1513741
20
6.786614
11
63.4649143
21
-0.8205147
0
LINE
8
0
10
63.4649143
20
-0.8205147
11
56.2804039
21
-16.227747
0
LINE
8
0
10
56.2804039
20
-16.227747
11
39.9668637
21
-8.6206183
0
LINE
8
0
10
39.9668637
20
-8.6206183
11
47.1513741
21
6.786614
0
LINE
8
0
10
67.6458402
20
-3.6838543
11
81.4346402
21
-15.2540313
0
LINE
8
0
10
81.4346402
20
-15.2540313
11
70.5072508
21
-28.2767869
0
LINE
8
0
10
70.5072508
20
-28.2767869
11
56.7184508
21
-16.7066099
0
LINE
8
0
10
56.7184508
20
-16.7066099
11
67.6458402
21
-3.6838543
0
LINE
8
0
10
84.7257598
20
-18.5659058
11
95.0501357
21
-33.3106426
0
LINE
8
0
10
95.0501357
20
-33.3106426
11
81.124551
21
-43.061442
0
LINE
8
0
10
81.124551
20
-43.061442
11
70.8001751
21
-28.3167052
0
LINE
8
0
10
70.8001751
20
-28.3167052
11
84.7257598
21
-18.5659058
0
ENDSEC
0
EOF