<svg width="104.05mm" height="115.019mm" viewBox="0 0 104.05 115.019" xmlns="http://www.w3.org/2000/svg"><g id="svgGroup" stroke-linecap="round" fill-rule="evenodd" font-size="9pt" stroke="#000" stroke-width="0.25mm" fill="none" style="stroke:#000;stroke-width:0.25mm;fill:none"><path d="M 76.646 75.641 L 90.435 87.211 L 79.507 100.234 L 65.718 88.664 L 76.646 75.641 Z M 77.402 33.875 L 95.129 37.001 L 98.081 20.259 L 80.354 17.133 L 77.402 33.875 Z M 43.868 16.742 L 61.594 19.867 L 58.642 36.609 L 40.916 33.483 L 43.868 16.742 Z M 57.166 44.98 L 74.893 48.106 L 71.941 64.847 L 54.214 61.722 L 57.166 44.98 Z M 60.118 28.238 L 77.845 31.364 L 74.893 48.106 L 57.166 44.98 L 60.118 28.238 Z M 92.177 53.743 L 95.129 37.001 L 77.402 33.875 L 74.45 50.617 L 92.177 53.743 Z M 40.916 33.483 L 58.642 36.609 L 55.69 53.351 L 37.964 50.225 L 40.916 33.483 Z M 46.82 0 L 64.546 3.126 L 61.594 19.867 L 43.868 16.742 L 46.82 0 Z M 63.07 11.497 L 80.797 14.622 L 77.845 31.364 L 60.118 28.238 L 63.07 11.497 Z M 74.45 50.617 L 92.177 53.743 L 89.225 70.484 L 71.498 67.359 L 74.45 50.617 Z M 0 52.407 L 18 52.407 L 18 69.407 L 0 69.407 L 0 52.407 Z M 18 52.407 L 18 35.407 L 0 35.407 L 0 52.407 L 18 52.407 Z M 0 35.407 L 18 35.407 L 18 18.407 L 0 18.407 L 0 35.407 Z M 93.726 90.523 L 104.05 105.268 L 90.125 115.019 L 79.8 100.274 L 93.726 90.523 Z M 20.198 40.463 L 38.099 42.345 L 36.322 59.252 L 18.421 57.37 L 20.198 40.463 Z M 21.975 23.556 L 39.876 25.438 L 38.099 42.345 L 20.198 40.463 L 21.975 23.556 Z M 23.752 6.649 L 41.653 8.531 L 39.876 25.438 L 21.975 23.556 L 23.752 6.649 Z M 56.151 65.171 L 72.465 72.778 L 65.28 88.185 L 48.967 80.578 L 56.151 65.171 Z" vector-effect="non-scaling-stroke"/></g></svg>