0
SECTION
2
HEADER
9
$INSUNITS
70
4
0
ENDSEC
0
SECTION
2
TABLES
0
TABLE
2
LTYPE
0
LTYPE
72
65
70
64
2
CONTINUOUS
3
______
73
0
40
0
0
ENDTAB
0
TABLE
2
LAYER
0
ENDTAB
0
ENDSEC
0
SECTION
2
ENTITIES
0
LINE
8
0
10
-10.5
20
1.05
11
10.5
21
1.05
0
LINE
8
0
10
10.5
20
1.05
11
10.5
21
12.9656303
0
LINE
8
0
10
-10.5
20
1.05
11
-10.5
21
55.05
0
LINE
8
0
10
10.5
20
39.2052755
11
10.5
21
55.05
0
LINE
8
0
10
10.5
20
55.05
11
-10.5
21
55.05
0
LINE
8
0
10
10.5
20
12.9656303
11
28.6571953
21
11.0572322
0
LINE
8
0
10
28.6571953
20
11.0572322
11
29.6071646
21
20.0955862
0
LINE
8
0
10
10.5
20
39.2052755
11
13.4167725
21
66.9565122
0
LINE
8
0
10
33.2302976
20
54.567394
11
34.3017323
21
64.7614145
0
LINE
8
0
10
34.3017323
20
64.7614145
11
13.4167725
21
66.9565122
0
LINE
8
0
10
29.6071646
20
20.0955862
11
44.95256
21
17.389779
0
LINE
8
0
10
33.2302976
20
54.567394
11
36.603022
21
73.6950649
0
LINE
8
0
10
55.8079753
20
61.6775873
11
57.2839848
21
70.0484532
0
LINE
8
0
10
57.2839848
20
70.0484532
11
36.603022
21
73.6950649
0
LINE
8
0
10
43.4765505
20
9.0189131
11
46.304707
21
8.5202328
0
LINE
8
0
10
47.3953158
20
8.327929
11
61.2030901
21
5.8932459
0
LINE
8
0
10
44.95256
20
17.389779
11
43.4765505
21
9.0189131
0
LINE
8
0
10
73.091712
20
56.0406603
11
73.5345149
21
58.5519201
0
LINE
8
0
10
73.5345149
20
58.5519201
11
55.8079753
21
61.6775873
0
LINE
8
0
10
60.7602872
20
3.3819861
11
81.44125
21
-0.2646256
0
LINE
8
0
10
81.44125
20
-0.2646256
11
90.8182516
21
52.9149931
0
LINE
8
0
10
61.2030901
20
5.8932459
11
60.7602872
21
3.3819861
0
LINE
8
0
10
90.8182516
20
52.9149931
11
73.091712
21
56.0406603
0
LINE
8
0
10
37.9734746
20
-9.3461526
11
55.1689482
21
-17.3645336
0
LINE
8
0
10
61.4044806
20
-8.7884313
11
65.4583034
21
-0.0949804
0
LINE
8
0
10
65.4583034
20
-0.0949804
11
47.3953158
21
8.327929
0
LINE
8
0
10
46.304707
20
8.5202328
11
37.9734746
21
-9.3461526
0
LINE
8
0
10
55.1689482
20
-17.3645336
11
70.0342193
21
-29.8379772
0
LINE
8
0
10
78.4815218
20
-21.1070065
11
83.5478882
21
-15.0691461
0
LINE
8
0
10
83.5478882
20
-15.0691461
11
67.4609549
21
-1.5706063
0
LINE
8
0
10
67.4609549
20
-1.5706063
11
61.4044806
21
-8.7884313
0
LINE
8
0
10
70.0342193
20
-29.8379772
11
80.7561875
21
-45.1505347
0
LINE
8
0
10
80.7561875
20
-45.1505347
11
97.1392284
21
-33.679006
0
LINE
8
0
10
97.1392284
20
-33.679006
11
85.0941233
21
-16.4768131
0
LINE
8
0
10
85.0941233
20
-16.4768131
11
78.4815218
21
-21.1070065
0
ENDSEC
0
EOF