<svg width="107.639mm" height="118.846mm" viewBox="0 0 107.639 118.846" xmlns="http://www.w3.org/2000/svg"><g id="svgGroup" stroke-linecap="round" fill-rule="evenodd" font-size="9pt" stroke="#000" stroke-width="0.25mm" fill="none" style="stroke:#000;stroke-width:0.25mm;fill:none"><path d="M 0 72.645 L 21 72.645 L 21 60.729 L 39.157 62.638 L 40.107 53.599 L 55.453 56.305 L 53.977 64.676 L 56.805 65.175 L 48.473 83.041 L 65.669 91.06 L 80.534 103.533 L 91.256 118.846 L 107.639 107.374 L 95.594 90.172 L 88.982 94.802 L 94.048 88.764 L 77.961 75.266 L 71.904 82.483 L 75.958 73.79 L 57.895 65.367 L 71.703 67.802 L 71.26 70.313 L 91.941 73.96 L 101.318 20.78 L 83.592 17.654 L 84.035 15.143 L 66.308 12.017 L 67.784 3.647 L 47.103 0 L 43.73 19.128 L 44.802 8.934 L 23.917 6.739 L 21 34.49 L 21 18.645 L 0 18.645 L 0 72.645 Z" vector-effect="non-scaling-stroke"/></g></svg>