<svg width="116.777mm" height="119.099mm" viewBox="0 0 116.777 119.099" xmlns="http://www.w3.org/2000/svg"><g id="svgGroup" stroke-linecap="round" fill-rule="evenodd" font-size="9pt" stroke="#000" stroke-width="0.25mm" fill="none" style="stroke:#000;stroke-width:0.25mm;fill:none"><path d="M 13.893 0.015 L 54.467 7.169 A 1 1 0 0 0 55.626 6.358 L 56.459 1.631 A 1 1 0 0 1 57.618 0.82 L 76.329 4.119 A 1 1 0 0 1 77.14 5.278 L 76.307 10.005 A 1 1 0 0 0 77.118 11.163 L 115.919 18.005 A 1 1 0 0 1 116.731 19.164 L 103.951 91.64 L 104.305 91.392 A 1 1 0 0 1 105.698 91.637 L 116.596 107.201 A 1 1 0 0 1 116.35 108.594 L 101.605 118.918 A 1 1 0 0 1 100.213 118.673 L 90.14 104.287 A 1 1 0 0 0 89.963 104.095 L 75.3 91.791 A 1 1 0 0 0 75.08 91.65 L 59.903 84.573 A 1 1 0 0 0 59.654 84.495 L 0.826 74.122 A 1 1 0 0 1 0.015 72.964 L 12.735 0.826 A 1 1 0 0 1 13.893 0.015 Z M 103.191 92.172 L 102.079 91.975 A 1 1 0 0 0 101.139 92.317 L 98.512 95.449 L 103.191 92.172 Z" vector-effect="non-scaling-stroke"/></g></svg>