0
SECTION
2
HEADER
9
$INSUNITS
70
4
0
ENDSEC
0
SECTION
2
TABLES
0
TABLE
2
LTYPE
0
LTYPE
72
65
70
64
2
CONTINUOUS
3
______
73
0
40
0
0
ENDTAB
0
TABLE
2
LAYER
0
ENDTAB
0
ENDSEC
0
SECTION
2
ENTITIES
0
LINE
8
0
10
-6.1366728
20
74.3263253
11
34.4374066
21
67.1720204
0
LINE
8
0
10
57.087985
20
63.1781123
11
95.8894103
21
56.3363741
0
LINE
8
0
10
96.7005699
20
55.1779181
11
83.9210768
21
-17.2981891
0
LINE
8
0
10
39.623885
20
-10.1533483
11
-19.2036981
21
0.2195418
0
LINE
8
0
10
83.1613244
20
-17.8301735
11
82.0484684
21
-17.6339469
0
LINE
8
0
10
-20.0148577
20
1.3779978
11
-7.2951288
21
73.5151657
0
LINE
8
0
10
35.5958626
20
67.98318
11
36.4293738
21
72.7102571
0
LINE
8
0
10
56.2768254
20
64.3365683
11
57.1103366
21
69.0636454
0
LINE
8
0
10
56.299177
20
70.2221014
11
37.5878298
21
73.5214167
0
LINE
8
0
10
39.8728551
20
-10.2318483
11
55.0496307
21
-17.308895
0
LINE
8
0
10
55.2698
20
-17.4491584
11
69.9333677
21
-29.7533527
0
LINE
8
0
10
78.4815218
20
-21.1070065
11
81.1087758
21
-17.9759671
0
LINE
8
0
10
70.1097321
20
-29.9458207
11
80.1826111
21
-44.3313827
0
LINE
8
0
10
81.5753395
20
-44.5769583
11
96.3200764
21
-34.2525824
0
LINE
8
0
10
96.565652
20
-32.859854
11
85.6676997
21
-17.2959651
0
LINE
8
0
10
84.2749713
20
-17.0503895
11
83.9210768
21
-17.2981891
0
LINE
8
0
10
83.1613244
20
-17.8301735
11
78.4815218
21
-21.1070065
0
ARC
8
0
10
34.6110548
20
68.1568282
40
1
50
259.9999992
51
349.9999992
0
ARC
8
0
10
37.4141816
20
72.5366089
40
1
50
79.9999992
51
169.9999992
0
ARC
8
0
10
56.1255288
20
69.2372936
40
1
50
349.9999992
51
79.9999992
0
ARC
8
0
10
57.2616332
20
64.1629201
40
1
50
169.9999992
51
259.9999992
0
ARC
8
0
10
95.7157621
20
55.3515663
40
1
50
349.9999992
51
79.9999992
0
ARC
8
0
10
84.8485477
20
-17.8695415
40
1
50
34.9999997
51
124.9999997
0
ARC
8
0
10
95.7465
20
-33.4334304
40
1
50
304.9999997
51
34.9999997
0
ARC
8
0
10
81.0017631
20
-43.7578063
40
1
50
214.9999997
51
304.9999997
0
ARC
8
0
10
69.2905801
20
-30.5193971
40
1
50
34.9999997
51
49.9999988
0
ARC
8
0
10
54.6270124
20
-18.2152028
40
1
50
49.9999988
51
64.9999983
0
ARC
8
0
10
39.4502368
20
-11.1381561
40
1
50
64.9999983
51
79.9999992
0
ARC
8
0
10
-19.0300499
20
1.2043496
40
1
50
169.9999992
51
259.9999992
0
ARC
8
0
10
-6.310321
20
73.3415175
40
1
50
79.9999992
51
169.9999992
0
ARC
8
0
10
81.8748202
20
-18.6187547
40
1
50
79.9999992
51
139.9999988
0
ENDSEC
0
EOF