<svg width="116.777mm" height="119.099mm" viewBox="0 0 116.777 119.099" xmlns="http://www.w3.org/2000/svg"><g id="svgGroup" stroke-linecap="round" fill-rule="evenodd" font-size="9pt" stroke="#000" stroke-width="0.25mm" fill="none" style="stroke:#000;stroke-width:0.25mm;fill:none"><path d="M 13.893 0.015 L 54.467 7.169 A 1 1 0 0 0 55.626 6.358 L 56.459 1.631 A 1 1 0 0 1 57.618 0.82 L 76.329 4.119 A 1 1 0 0 1 77.14 5.278 L 76.307 10.005 A 1 1 0 0 0 77.118 11.163 L 115.919 18.005 A 1 1 0 0 1 116.731 19.164 L 103.951 91.64 L 104.305 91.392 A 1 1 0 0 1 105.698 91.637 L 116.596 107.201 A 1 1 0 0 1 116.35 108.594 L 101.605 118.918 A 1 1 0 0 1 100.213 118.673 L 90.14 104.287 A 1 1 0 0 0 89.963 104.095 L 75.3 91.791 A 1 1 0 0 0 75.08 91.65 L 59.903 84.573 A 1 1 0 0 0 59.654 84.495 L 0.826 74.122 A 1 1 0 0 1 0.015 72.964 L 12.735 0.826 A 1 1 0 0 1 13.893 0.015 Z M 29.726 59.532 L 47.13 61.361 L 48.854 44.951 L 31.45 43.122 L 29.726 59.532 Z M 31.503 42.625 L 48.907 44.454 L 50.631 28.044 L 33.227 26.215 L 31.503 42.625 Z M 33.28 25.718 L 50.684 27.547 L 52.408 11.138 L 35.004 9.308 L 33.28 25.718 Z M 91.178 102.72 L 101.216 117.055 L 114.732 107.591 L 104.694 93.256 L 91.178 102.72 Z M 77.101 91.017 L 90.506 102.266 L 101.112 89.626 L 87.707 78.378 L 77.101 91.017 Z M 11.28 71.542 L 28.78 71.542 L 28.78 55.042 L 11.28 55.042 L 11.28 71.542 Z M 11.28 54.542 L 28.78 54.542 L 28.78 38.042 L 11.28 38.042 L 11.28 54.542 Z M 11.28 37.542 L 28.78 37.542 L 28.78 21.042 L 11.28 21.042 L 11.28 37.542 Z M 60.329 82.841 L 76.19 90.237 L 83.163 75.283 L 67.302 67.887 L 60.329 82.841 Z M 52.235 35.665 L 69.47 38.704 L 72.335 22.454 L 55.101 19.415 L 52.235 35.665 Z M 55.187 18.923 L 72.422 21.962 L 75.287 5.713 L 58.053 2.674 L 55.187 18.923 Z M 65.534 63.903 L 82.768 66.942 L 85.633 50.693 L 68.399 47.654 L 65.534 63.903 Z M 49.283 52.407 L 66.518 55.445 L 69.383 39.196 L 52.149 36.157 L 49.283 52.407 Z M 68.486 47.161 L 85.72 50.2 L 88.585 33.951 L 71.351 30.912 L 68.486 47.161 Z M 71.438 30.42 L 88.672 33.458 L 91.537 17.209 L 74.303 14.17 L 71.438 30.42 Z M 82.818 69.54 L 100.052 72.579 L 102.917 56.33 L 85.683 53.291 L 82.818 69.54 Z M 85.77 52.798 L 103.004 55.837 L 105.869 39.588 L 88.635 36.549 L 85.77 52.798 Z M 88.722 36.057 L 105.956 39.095 L 108.821 22.846 L 91.587 19.807 L 88.722 36.057 Z M 103.191 92.172 L 102.079 91.975 A 1 1 0 0 0 101.139 92.317 L 98.512 95.449 L 103.191 92.172 Z" vector-effect="non-scaling-stroke"/></g></svg>