0
SECTION
2
HEADER
9
$INSUNITS
70
4
0
ENDSEC
0
SECTION
2
TABLES
0
TABLE
2
LTYPE
0
LTYPE
72
65
70
64
2
CONTINUOUS
3
______
73
0
40
0
0
ENDTAB
0
TABLE
2
LAYER
0
ENDTAB
0
ENDSEC
0
SECTION
2
ENTITIES
0
LINE
8
0
10
-6.1366728
20
74.3263253
11
34.4374066
21
67.1720204
0
LINE
8
0
10
57.087985
20
63.1781123
11
95.8894103
21
56.3363741
0
LINE
8
0
10
96.7005699
20
55.1779181
11
83.9210768
21
-17.2981891
0
LINE
8
0
10
39.623885
20
-10.1533483
11
-19.2036981
21
0.2195418
0
LINE
8
0
10
83.1613244
20
-17.8301735
11
82.0484684
21
-17.6339469
0
LINE
8
0
10
-20.0148577
20
1.3779978
11
-7.2951288
21
73.5151657
0
LINE
8
0
10
35.5958626
20
67.98318
11
36.4293738
21
72.7102571
0
LINE
8
0
10
56.2768254
20
64.3365683
11
57.1103366
21
69.0636454
0
LINE
8
0
10
56.299177
20
70.2221014
11
37.5878298
21
73.5214167
0
LINE
8
0
10
39.8728551
20
-10.2318483
11
55.0496307
21
-17.308895
0
LINE
8
0
10
55.2698
20
-17.4491584
11
69.9333677
21
-29.7533527
0
LINE
8
0
10
78.4815218
20
-21.1070065
11
81.1087758
21
-17.9759671
0
LINE
8
0
10
70.1097321
20
-29.9458207
11
80.1826111
21
-44.3313827
0
LINE
8
0
10
81.5753395
20
-44.5769583
11
96.3200764
21
-34.2525824
0
LINE
8
0
10
96.565652
20
-32.859854
11
85.6676997
21
-17.2959651
0
LINE
8
0
10
84.2749713
20
-17.0503895
11
83.9210768
21
-17.2981891
0
LINE
8
0
10
83.1613244
20
-17.8301735
11
78.4815218
21
-21.1070065
0
ARC
8
0
10
34.6110548
20
68.1568282
40
1
50
259.9999992
51
349.9999992
0
ARC
8
0
10
37.4141816
20
72.5366089
40
1
50
79.9999992
51
169.9999992
0
ARC
8
0
10
56.1255288
20
69.2372936
40
1
50
349.9999992
51
79.9999992
0
ARC
8
0
10
57.2616332
20
64.1629201
40
1
50
169.9999992
51
259.9999992
0
ARC
8
0
10
95.7157621
20
55.3515663
40
1
50
349.9999992
51
79.9999992
0
ARC
8
0
10
84.8485477
20
-17.8695415
40
1
50
34.9999997
51
124.9999997
0
ARC
8
0
10
95.7465
20
-33.4334304
40
1
50
304.9999997
51
34.9999997
0
ARC
8
0
10
81.0017631
20
-43.7578063
40
1
50
214.9999997
51
304.9999997
0
ARC
8
0
10
69.2905801
20
-30.5193971
40
1
50
34.9999997
51
49.9999988
0
ARC
8
0
10
54.6270124
20
-18.2152028
40
1
50
49.9999988
51
64.9999983
0
ARC
8
0
10
39.4502368
20
-11.1381561
40
1
50
64.9999983
51
79.9999992
0
ARC
8
0
10
-19.0300499
20
1.2043496
40
1
50
169.9999992
51
259.9999992
0
ARC
8
0
10
-6.310321
20
73.3415175
40
1
50
79.9999992
51
169.9999992
0
ARC
8
0
10
81.8748202
20
-18.6187547
40
1
50
79.9999992
51
139.9999988
0
LINE
8
0
10
-8.75
20
2.8
11
8.75
21
2.8
0
LINE
8
0
10
8.75
20
2.8
11
8.75
21
19.3
0
LINE
8
0
10
8.75
20
19.3
11
-8.75
21
19.3
0
LINE
8
0
10
-8.75
20
19.3
11
-8.75
21
2.8
0
LINE
8
0
10
-8.75
20
19.8
11
8.75
21
19.8
0
LINE
8
0
10
8.75
20
19.8
11
8.75
21
36.3
0
LINE
8
0
10
8.75
20
36.3
11
-8.75
21
36.3
0
LINE
8
0
10
-8.75
20
36.3
11
-8.75
21
19.8
0
LINE
8
0
10
-8.75
20
36.8
11
8.75
21
36.8
0
LINE
8
0
10
8.75
20
36.8
11
8.75
21
53.3
0
LINE
8
0
10
8.75
20
53.3
11
-8.75
21
53.3
0
LINE
8
0
10
-8.75
20
53.3
11
-8.75
21
36.8
0
LINE
8
0
10
9.6955736
20
14.8098184
11
27.0997068
21
12.9805703
0
LINE
8
0
10
27.0997068
20
12.9805703
11
28.8244264
21
29.3901816
0
LINE
8
0
10
28.8244264
20
29.3901816
11
11.4202932
21
31.2194297
0
LINE
8
0
10
11.4202932
20
31.2194297
11
9.6955736
21
14.8098184
0
LINE
8
0
10
11.4725575
20
31.7166906
11
28.8766907
21
29.8874425
0
LINE
8
0
10
28.8766907
20
29.8874425
11
30.6014103
21
46.2970538
0
LINE
8
0
10
30.6014103
20
46.2970538
11
13.1972771
21
48.1263019
0
LINE
8
0
10
13.1972771
20
48.1263019
11
11.4725575
21
31.7166906
0
LINE
8
0
10
13.2495414
20
48.6235628
11
30.6536746
21
46.7943147
0
LINE
8
0
10
30.6536746
20
46.7943147
11
32.3783942
21
63.203926
0
LINE
8
0
10
32.3783942
20
63.203926
11
14.974261
21
65.0331741
0
LINE
8
0
10
14.974261
20
65.0331741
11
13.2495414
21
48.6235628
0
LINE
8
0
10
29.2533183
20
21.9349755
11
46.487454
21
18.8961324
0
LINE
8
0
10
46.487454
20
18.8961324
11
49.3526489
21
35.1454603
0
LINE
8
0
10
49.3526489
20
35.1454603
11
32.1185132
21
38.1843034
0
LINE
8
0
10
32.1185132
20
38.1843034
11
29.2533183
21
21.9349755
0
LINE
8
0
10
32.2053373
20
38.6767073
11
49.439473
21
35.6378642
0
LINE
8
0
10
49.439473
20
35.6378642
11
52.3046679
21
51.8871921
0
LINE
8
0
10
52.3046679
20
51.8871921
11
35.0705322
21
54.9260352
0
LINE
8
0
10
35.0705322
20
54.9260352
11
32.2053373
21
38.6767073
0
LINE
8
0
10
35.1573563
20
55.4184391
11
52.391492
21
52.379596
0
LINE
8
0
10
52.391492
20
52.379596
11
55.2566869
21
68.6289239
0
LINE
8
0
10
55.2566869
20
68.6289239
11
38.0225512
21
71.667767
0
LINE
8
0
10
38.0225512
20
71.667767
11
35.1573563
21
55.4184391
0
LINE
8
0
10
45.5038484
20
10.4384424
11
62.7379841
21
7.3995993
0
LINE
8
0
10
62.7379841
20
7.3995993
11
65.603179
21
23.6489272
0
LINE
8
0
10
65.603179
20
23.6489272
11
48.3690433
21
26.6877703
0
LINE
8
0
10
48.3690433
20
26.6877703
11
45.5038484
21
10.4384424
0
LINE
8
0
10
48.4558674
20
27.1801742
11
65.6900031
21
24.1413311
0
LINE
8
0
10
65.6900031
20
24.1413311
11
68.555198
21
40.390659
0
LINE
8
0
10
68.555198
20
40.390659
11
51.3210623
21
43.4295021
0
LINE
8
0
10
51.3210623
20
43.4295021
11
48.4558674
21
27.1801742
0
LINE
8
0
10
51.4078864
20
43.921906
11
68.6420221
21
40.8830629
0
LINE
8
0
10
68.6420221
20
40.8830629
11
71.507217
21
57.1323908
0
LINE
8
0
10
71.507217
20
57.1323908
11
54.2730813
21
60.1712339
0
LINE
8
0
10
54.2730813
20
60.1712339
11
51.4078864
21
43.921906
0
LINE
8
0
10
62.7875851
20
4.8015154
11
80.0217208
21
1.7626723
0
LINE
8
0
10
80.0217208
20
1.7626723
11
82.8869157
21
18.0120002
0
LINE
8
0
10
82.8869157
20
18.0120002
11
65.65278
21
21.0508433
0
LINE
8
0
10
65.65278
20
21.0508433
11
62.7875851
21
4.8015154
0
LINE
8
0
10
65.7396041
20
21.5432472
11
82.9737398
21
18.5044041
0
LINE
8
0
10
82.9737398
20
18.5044041
11
85.8389347
21
34.753732
0
LINE
8
0
10
85.8389347
20
34.753732
11
68.604799
21
37.7925751
0
LINE
8
0
10
68.604799
20
37.7925751
11
65.7396041
21
21.5432472
0
LINE
8
0
10
68.6916231
20
38.284979
11
85.9257588
21
35.2461359
0
LINE
8
0
10
85.9257588
20
35.2461359
11
88.7909537
21
51.4954638
0
LINE
8
0
10
88.7909537
20
51.4954638
11
71.556818
21
54.5343069
0
LINE
8
0
10
71.556818
20
54.5343069
11
68.6916231
21
38.284979
0
LINE
8
0
10
40.2990952
20
-8.499696
11
56.1594815
21
-15.8955155
0
LINE
8
0
10
56.1594815
20
-15.8955155
11
63.1326828
21
-0.941437
0
LINE
8
0
10
63.1326828
20
-0.941437
11
47.2722965
21
6.4543825
0
LINE
8
0
10
47.2722965
20
6.4543825
11
40.2990952
21
-8.499696
0
LINE
8
0
10
57.0706588
20
-16.6757957
11
70.4764366
21
-27.9245788
0
LINE
8
0
10
70.4764366
20
-27.9245788
11
81.0824322
21
-15.2848455
0
LINE
8
0
10
81.0824322
20
-15.2848455
11
67.6766544
21
-4.0360624
0
LINE
8
0
10
67.6766544
20
-4.0360624
11
57.0706588
21
-16.6757957
0
LINE
8
0
10
71.1483572
20
-28.3780991
11
81.1859449
21
-42.7132599
0
LINE
8
0
10
81.1859449
20
-42.7132599
11
94.7019536
21
-33.2492487
0
LINE
8
0
10
94.7019536
20
-33.2492487
11
84.6643659
21
-18.9140879
0
LINE
8
0
10
84.6643659
20
-18.9140879
11
71.1483572
21
-28.3780991
0
ENDSEC
0
EOF