<svg width="103.452mm" height="114.381mm" viewBox="0 0 103.452 114.381" xmlns="http://www.w3.org/2000/svg"><g id="svgGroup" stroke-linecap="round" fill-rule="evenodd" font-size="9pt" stroke="#000" stroke-width="0.25mm" fill="none" style="stroke:#000;stroke-width:0.25mm;fill:none"><path d="M 18.446 56.858 L 35.85 58.687 L 37.574 42.278 L 20.17 40.448 L 18.446 56.858 Z M 20.223 39.951 L 37.627 41.78 L 39.351 25.371 L 21.947 23.541 L 20.223 39.951 Z M 22 23.044 L 39.404 24.873 L 41.128 8.464 L 23.724 6.635 L 22 23.044 Z M 79.898 100.046 L 89.936 114.381 L 103.452 104.917 L 93.414 90.582 L 79.898 100.046 Z M 65.821 88.344 L 79.226 99.592 L 89.832 86.953 L 76.427 75.704 L 65.821 88.344 Z M 0 68.868 L 17.5 68.868 L 17.5 52.368 L 0 52.368 L 0 68.868 Z M 0 51.868 L 17.5 51.868 L 17.5 35.368 L 0 35.368 L 0 51.868 Z M 0 34.868 L 17.5 34.868 L 17.5 18.368 L 0 18.368 L 0 34.868 Z M 49.049 80.167 L 64.909 87.563 L 71.883 72.609 L 56.022 65.213 L 49.049 80.167 Z M 40.955 32.991 L 58.189 36.03 L 61.055 19.781 L 43.821 16.742 L 40.955 32.991 Z M 43.907 16.249 L 61.141 19.288 L 64.007 3.039 L 46.773 0 L 43.907 16.249 Z M 54.254 61.229 L 71.488 64.268 L 74.353 48.019 L 57.119 44.98 L 54.254 61.229 Z M 38.003 49.733 L 55.237 52.772 L 58.103 36.522 L 40.869 33.483 L 38.003 49.733 Z M 57.206 44.488 L 74.44 47.526 L 77.305 31.277 L 60.071 28.238 L 57.206 44.488 Z M 60.158 27.746 L 77.392 30.785 L 80.257 14.535 L 63.023 11.497 L 60.158 27.746 Z M 71.538 66.866 L 88.772 69.905 L 91.637 53.656 L 74.403 50.617 L 71.538 66.866 Z M 74.49 50.125 L 91.724 53.163 L 94.589 36.914 L 77.355 33.875 L 74.49 50.125 Z M 77.442 33.383 L 94.676 36.422 L 97.541 20.172 L 80.307 17.133 L 77.442 33.383 Z" vector-effect="non-scaling-stroke"/></g></svg>